<svg width="226" height="609" viewBox="0 0 226 609" fill="none" xmlns="http://www.w3.org/2000/svg">
<g filter="url(#filter0_i_103_74)">
<ellipse cx="186" cy="108.5" rx="186" ry="183.5" fill="url(#paint0_linear_103_74)"/>
</g>
<g filter="url(#filter1_i_103_74)">
<path d="M312.57 607.871C295.364 610.226 277.872 608.888 261.191 603.941C244.509 598.993 228.999 590.544 215.631 579.121C202.264 567.699 191.328 553.55 183.509 537.563C175.69 521.575 171.157 504.093 170.194 486.213C169.231 468.333 171.859 450.44 177.913 433.657C183.967 416.874 193.316 401.562 205.375 388.682C217.433 375.802 231.941 365.631 247.988 358.808C264.035 351.984 281.276 348.655 298.629 349.028L297.761 391.955C286.139 391.705 274.593 393.935 263.845 398.505C253.098 403.075 243.382 409.886 235.306 418.512C227.23 427.138 220.969 437.393 216.915 448.633C212.86 459.873 211.1 471.856 211.745 483.83C212.39 495.805 215.426 507.513 220.662 518.221C225.899 528.928 233.223 538.404 242.175 546.053C251.128 553.703 261.516 559.362 272.687 562.675C283.859 565.989 295.574 566.885 307.097 565.308L312.57 607.871Z" fill="url(#paint1_linear_103_74)"/>
</g>
<defs>
<filter id="filter0_i_103_74" x="0" y="-75" width="372" height="371" filterUnits="userSpaceOnUse" color-interpolation-filters="sRGB">
<feFlood flood-opacity="0" result="BackgroundImageFix"/>
<feBlend mode="normal" in="SourceGraphic" in2="BackgroundImageFix" result="shape"/>
<feColorMatrix in="SourceAlpha" type="matrix" values="0 0 0 0 0 0 0 0 0 0 0 0 0 0 0 0 0 0 127 0" result="hardAlpha"/>
<feMorphology radius="4" operator="erode" in="SourceAlpha" result="effect1_innerShadow_103_74"/>
<feOffset dy="4"/>
<feGaussianBlur stdDeviation="10"/>
<feComposite in2="hardAlpha" operator="arithmetic" k2="-1" k3="1"/>
<feColorMatrix type="matrix" values="0 0 0 0 0 0 0 0 0 0 0 0 0 0 0 0 0 0 0.25 0"/>
<feBlend mode="normal" in2="shape" result="effect1_innerShadow_103_74"/>
</filter>
<filter id="filter1_i_103_74" x="170" y="349" width="142.57" height="264" filterUnits="userSpaceOnUse" color-interpolation-filters="sRGB">
<feFlood flood-opacity="0" result="BackgroundImageFix"/>
<feBlend mode="normal" in="SourceGraphic" in2="BackgroundImageFix" result="shape"/>
<feColorMatrix in="SourceAlpha" type="matrix" values="0 0 0 0 0 0 0 0 0 0 0 0 0 0 0 0 0 0 127 0" result="hardAlpha"/>
<feMorphology radius="4" operator="erode" in="SourceAlpha" result="effect1_innerShadow_103_74"/>
<feOffset dy="4"/>
<feGaussianBlur stdDeviation="10"/>
<feComposite in2="hardAlpha" operator="arithmetic" k2="-1" k3="1"/>
<feColorMatrix type="matrix" values="0 0 0 0 0 0 0 0 0 0 0 0 0 0 0 0 0 0 0.25 0"/>
<feBlend mode="normal" in2="shape" result="effect1_innerShadow_103_74"/>
</filter>
<linearGradient id="paint0_linear_103_74" x1="0" y1="108.5" x2="372" y2="108.5" gradientUnits="userSpaceOnUse">
<stop offset="0.21875" stop-color="#D95D39"/>
<stop offset="0.786458" stop-color="#202C59"/>
</linearGradient>
<linearGradient id="paint1_linear_103_74" x1="170" y1="479" x2="422" y2="479" gradientUnits="userSpaceOnUse">
<stop offset="0.21875" stop-color="#D95D39"/>
<stop offset="0.786458" stop-color="#202C59"/>
</linearGradient>
</defs>
</svg>
